<?xml version="1.0" encoding="utf-8"?>
<!-- Generator: Adobe Illustrator 21.0.0, SVG Export Plug-In . SVG Version: 6.00 Build 0)  -->
<svg version="1.1" id="Layer_1" xmlns="http://www.w3.org/2000/svg" xmlns:xlink="http://www.w3.org/1999/xlink" x="0px" y="0px"
	 viewBox="0 0 35 35" style="enable-background:new 0 0 35 35;" xml:space="preserve">
<style type="text/css">
	.st0{fill:#FF7B73;}
	.st1{fill:#FFFFFF;}
	.st2{fill:none;stroke:#FFFFFF;stroke-linecap:round;stroke-linejoin:round;stroke-miterlimit:10;}
	.st3{fill:none;}
	.st4{fill-rule:evenodd;clip-rule:evenodd;fill:#0071B9;}
	.st5{fill:#0071B9;}
	.st6{fill-rule:evenodd;clip-rule:evenodd;fill:#FFBE00;}
	.st7{fill:#FFBE00;}
	.st8{fill:none;stroke:#FFFFFF;stroke-width:0.75;stroke-linejoin:round;stroke-miterlimit:10;}
	.st9{fill-rule:evenodd;clip-rule:evenodd;fill:#FFA01C;}
	.st10{fill:#FFA01C;}
	.st11{enable-background:new    ;}
	.st12{clip-path:url(#SVGID_2_);}
	.st13{clip-path:url(#SVGID_6_);}
	.st14{fill:none;stroke:#5EBFE2;stroke-miterlimit:10;}
	.st15{clip-path:url(#SVGID_10_);}
	.st16{clip-path:url(#SVGID_12_);fill:#5EBD5E;}
	.st17{fill:none;stroke:#FFFFFF;stroke-width:2;stroke-linecap:round;stroke-miterlimit:10;}
	.st18{fill:none;stroke:#FF7B73;stroke-linecap:round;stroke-miterlimit:10;}
	.st19{fill:none;stroke:#FFFFFF;stroke-width:0.75;stroke-linecap:round;stroke-miterlimit:10;}
	.st20{fill:#333333;}
	.st21{fill-rule:evenodd;clip-rule:evenodd;fill:#333333;}
</style>
<g>
	<defs>
		<circle id="SVGID_9_" cx="-92.2" cy="-37.5" r="14"/>
	</defs>
	<clipPath id="SVGID_2_">
		<use xlink:href="#SVGID_9_"  style="overflow:visible;"/>
	</clipPath>
	<g class="st12">
		<defs>
			<rect id="SVGID_11_" x="-925.2" y="-607.5" width="1280" height="800"/>
		</defs>
		<clipPath id="SVGID_4_">
			<use xlink:href="#SVGID_11_"  style="overflow:visible;"/>
		</clipPath>
	</g>
</g>
<g>
	<path class="st20" d="M24.3,12.7c-0.2-0.4-0.3-0.7-0.7-1c-0.3-0.3-0.6-0.5-1-0.7c-0.3-0.1-0.8-0.3-1.6-0.3c-0.9,0-1.2-0.1-3.5-0.1
		c-2.3,0-2.6,0-3.5,0.1c-0.8,0-1.3,0.2-1.6,0.3c-0.4,0.2-0.7,0.3-1,0.7c-0.3,0.3-0.5,0.6-0.7,1c-0.1,0.3-0.3,0.8-0.3,1.6
		c0,0.9-0.1,1.2-0.1,3.5s0,2.6,0.1,3.5c0,0.8,0.2,1.3,0.3,1.6c0.2,0.4,0.3,0.7,0.7,1c0.3,0.3,0.6,0.5,1,0.7c0.3,0.1,0.8,0.3,1.6,0.3
		c0.9,0,1.2,0.1,3.5,0.1c2.3,0,2.6,0,3.5-0.1c0.8,0,1.3-0.2,1.6-0.3c0.4-0.2,0.7-0.3,1-0.7c0.3-0.3,0.5-0.6,0.7-1
		c0.1-0.3,0.3-0.8,0.3-1.6c0-0.9,0.1-1.2,0.1-3.5s0-2.6-0.1-3.5C24.6,13.4,24.4,13,24.3,12.7z M17.5,22.3c-2.5,0-4.5-2-4.5-4.5
		s2-4.5,4.5-4.5c2.5,0,4.5,2,4.5,4.5S20,22.3,17.5,22.3z M22.2,14.2c-0.6,0-1-0.5-1-1c0-0.6,0.5-1,1-1c0.6,0,1,0.5,1,1
		C23.2,13.7,22.7,14.2,22.2,14.2z"/>
	<circle class="st20" cx="17.5" cy="17.8" r="2.9"/>
	<path class="st20" d="M17.5,2.4C9.2,2.4,2.4,9.2,2.4,17.5c0,8.3,6.7,15.1,15.1,15.1c8.3,0,15.1-6.7,15.1-15.1
		C32.6,9.2,25.8,2.4,17.5,2.4z M26.2,21.4c0,0.9-0.2,1.6-0.4,2.1c-0.2,0.6-0.5,1.1-1,1.5c-0.5,0.5-1,0.8-1.5,1
		c-0.6,0.2-1.2,0.4-2.1,0.4c-0.9,0-1.2,0.1-3.6,0.1c-2.4,0-2.7,0-3.6-0.1c-0.9,0-1.6-0.2-2.1-0.4c-0.6-0.2-1.1-0.5-1.5-1
		c-0.5-0.5-0.8-1-1-1.5c-0.2-0.6-0.4-1.2-0.4-2.1c0-0.9-0.1-1.2-0.1-3.6s0-2.7,0.1-3.6c0-0.9,0.2-1.6,0.4-2.1c0.2-0.6,0.5-1.1,1-1.5
		c0.5-0.5,1-0.8,1.5-1c0.6-0.2,1.2-0.4,2.1-0.4c0.9,0,1.2-0.1,3.6-0.1c2.4,0,2.7,0,3.6,0.1c0.9,0,1.6,0.2,2.1,0.4
		c0.6,0.2,1.1,0.5,1.5,1c0.5,0.5,0.8,1,1,1.5c0.2,0.6,0.4,1.2,0.4,2.1c0,0.9,0.1,1.2,0.1,3.6S26.2,20.5,26.2,21.4z"/>
</g>
</svg>
