<?xml version="1.0" encoding="utf-8"?>
<!-- Generator: Adobe Illustrator 21.0.0, SVG Export Plug-In . SVG Version: 6.00 Build 0)  -->
<svg version="1.1" id="Layer_1" xmlns="http://www.w3.org/2000/svg" xmlns:xlink="http://www.w3.org/1999/xlink" x="0px" y="0px"
	 viewBox="0 0 35 35" style="enable-background:new 0 0 35 35;" xml:space="preserve">
<style type="text/css">
	.st0{fill:#FF7B73;}
	.st1{fill:#FFFFFF;}
	.st2{fill:none;stroke:#FFFFFF;stroke-linecap:round;stroke-linejoin:round;stroke-miterlimit:10;}
	.st3{fill:none;}
	.st4{fill-rule:evenodd;clip-rule:evenodd;fill:#0071B9;}
	.st5{fill:#0071B9;}
	.st6{fill-rule:evenodd;clip-rule:evenodd;fill:#FFBE00;}
	.st7{fill:#FFBE00;}
	.st8{fill:none;stroke:#FFFFFF;stroke-width:0.75;stroke-linejoin:round;stroke-miterlimit:10;}
	.st9{fill-rule:evenodd;clip-rule:evenodd;fill:#FFA01C;}
	.st10{fill:#FFA01C;}
	.st11{enable-background:new    ;}
	.st12{clip-path:url(#SVGID_2_);}
	.st13{clip-path:url(#SVGID_6_);}
	.st14{fill:none;stroke:#5EBFE2;stroke-miterlimit:10;}
	.st15{clip-path:url(#SVGID_10_);}
	.st16{clip-path:url(#SVGID_12_);fill:#5EBD5E;}
	.st17{fill:none;stroke:#FFFFFF;stroke-width:2;stroke-linecap:round;stroke-miterlimit:10;}
	.st18{fill:none;stroke:#FF7B73;stroke-linecap:round;stroke-miterlimit:10;}
	.st19{fill:none;stroke:#FFFFFF;stroke-width:0.75;stroke-linecap:round;stroke-miterlimit:10;}
	.st20{fill:#333333;}
	.st21{fill-rule:evenodd;clip-rule:evenodd;fill:#333333;}
</style>
<g>
	<defs>
		<circle id="SVGID_9_" cx="-202.2" cy="-37.5" r="14"/>
	</defs>
	<clipPath id="SVGID_2_">
		<use xlink:href="#SVGID_9_"  style="overflow:visible;"/>
	</clipPath>
	<g class="st12">
		<defs>
			<rect id="SVGID_11_" x="-1035.2" y="-607.5" width="1280" height="800"/>
		</defs>
		<clipPath id="SVGID_4_">
			<use xlink:href="#SVGID_11_"  style="overflow:visible;"/>
		</clipPath>
	</g>
</g>
<g>
	<path class="st20" d="M20.1,17.4L15.4,15c-0.1-0.1-0.3,0-0.3,0.2v4.6c0,0.1,0.1,0.2,0.3,0.2l4.7-2.2C20.2,17.7,20.3,17.5,20.1,17.4
		z"/>
	<path class="st20" d="M17.5,2.5c-8.3,0-15,6.7-15,15c0,8.3,6.7,15,15,15c8.3,0,15-6.7,15-15C32.5,9.2,25.8,2.5,17.5,2.5z M26.1,20
		c0,2-1.6,3.6-3.6,3.6h-10c-2,0-3.6-1.6-3.6-3.6v-5c0-2,1.6-3.6,3.6-3.6h10c2,0,3.6,1.6,3.6,3.6V20z"/>
</g>
</svg>
