<?xml version="1.0" encoding="utf-8"?>
<!-- Generator: Adobe Illustrator 21.0.0, SVG Export Plug-In . SVG Version: 6.00 Build 0)  -->
<svg version="1.1" id="Layer_1" xmlns="http://www.w3.org/2000/svg" xmlns:xlink="http://www.w3.org/1999/xlink" x="0px" y="0px"
	 viewBox="0 0 35 35" style="enable-background:new 0 0 35 35;" xml:space="preserve">
<style type="text/css">
	.st0{fill:#FF7B73;}
	.st1{fill:#FFFFFF;}
	.st2{fill:none;stroke:#FFFFFF;stroke-linecap:round;stroke-linejoin:round;stroke-miterlimit:10;}
	.st3{fill:none;}
	.st4{fill-rule:evenodd;clip-rule:evenodd;fill:#0071B9;}
	.st5{fill:#0071B9;}
	.st6{fill-rule:evenodd;clip-rule:evenodd;fill:#FFBE00;}
	.st7{fill:#FFBE00;}
	.st8{fill:none;stroke:#FFFFFF;stroke-width:0.75;stroke-linejoin:round;stroke-miterlimit:10;}
	.st9{fill-rule:evenodd;clip-rule:evenodd;fill:#FFA01C;}
	.st10{fill:#FFA01C;}
	.st11{enable-background:new    ;}
	.st12{clip-path:url(#SVGID_2_);}
	.st13{clip-path:url(#SVGID_6_);}
	.st14{fill:none;stroke:#5EBFE2;stroke-miterlimit:10;}
	.st15{clip-path:url(#SVGID_10_);}
	.st16{clip-path:url(#SVGID_12_);fill:#5EBD5E;}
	.st17{fill:none;stroke:#FFFFFF;stroke-width:2;stroke-linecap:round;stroke-miterlimit:10;}
	.st18{fill:none;stroke:#FF7B73;stroke-linecap:round;stroke-miterlimit:10;}
	.st19{fill:none;stroke:#FFFFFF;stroke-width:0.75;stroke-linecap:round;stroke-miterlimit:10;}
	.st20{fill:#333333;}
	.st21{fill-rule:evenodd;clip-rule:evenodd;fill:#333333;}
</style>
<g>
	<defs>
		<circle id="SVGID_9_" cx="-257.2" cy="-37.5" r="14"/>
	</defs>
	<clipPath id="SVGID_2_">
		<use xlink:href="#SVGID_9_"  style="overflow:visible;"/>
	</clipPath>
	<g class="st12">
		<defs>
			<rect id="SVGID_11_" x="-1090.2" y="-607.5" width="1280" height="800"/>
		</defs>
		<clipPath id="SVGID_4_">
			<use xlink:href="#SVGID_11_"  style="overflow:visible;"/>
		</clipPath>
	</g>
</g>
<g>
	<path class="st21" d="M14.9,16c-3.4,0.3-5.9,2.4-5.7,4.6c0.2,2.2,3.1,3.8,6.5,3.4c3.4-0.3,5.9-2.4,5.7-4.6
		C21.2,17.2,18.2,15.7,14.9,16z M14.7,22.3c-1.4,0.3-2.6-0.4-2.9-1.6c-0.2-1.1,0.7-2.3,2.1-2.5c1.4-0.3,2.6,0.4,2.9,1.6
		C17,20.9,16.1,22,14.7,22.3z"/>
	<path class="st21" d="M17.5,2.5c-8.3,0-15,6.7-15,15c0,8.3,6.7,14.9,15,14.9c8.3,0,14.9-6.7,14.9-14.9C32.5,9.2,25.8,2.5,17.5,2.5z
		 M15.6,25.6c-4.2,0-8.6-2.3-8.6-5.7c0-1.8,1.1-3.9,3-5.8c2.6-2.6,5.6-3.8,6.7-2.7c0.5,0.5,0.5,1.4,0.2,2.4
		c-0.2,0.5,0.5,0.2,0.5,0.2c2.1-0.9,3.9-0.9,4.5,0c0.4,0.5,0.3,1.2,0,2.1c-0.2,0.4,0,0.4,0.3,0.5c1.2,0.4,2.5,1.3,2.5,2.8
		C24.9,22.1,21.2,25.6,15.6,25.6z M24.4,14.6c-0.4,0.1-0.8-0.2-0.9-0.6c-0.2-1.1-1.1-1.9-2.1-2.1c-0.4-0.1-0.7-0.5-0.6-0.9
		c0.1-0.4,0.5-0.7,0.9-0.6c1.6,0.3,2.9,1.6,3.3,3.3C25.1,14.2,24.8,14.6,24.4,14.6z M27.9,13.9c0,0.4-0.3,0.7-0.7,0.7
		s-0.7-0.3-0.7-0.7c0-2.7-2.2-4.8-4.8-4.8c-0.4,0-0.7-0.3-0.7-0.7c0-0.4,0.3-0.7,0.7-0.7C25.1,7.6,27.9,10.4,27.9,13.9L27.9,13.9z"
		/>
</g>
</svg>
